0
SECTION
2
HEADER
9
$ACADVER
1
AC1009
9
$INSUNITS
70
4
9
$DWGCODEPAGE
3
ANSI_1252
9
$EXTMIN
10
58.000000
20
102.000000
30
0.000000
9
$EXTMAX
10
259.000000
20
265.000000
30
0.000000
9
$LTSCALE
40
1.000000
9
$TEXTSTYLE
7
STANDARD
0
ENDSEC
0
SECTION
2
TABLES
0
TABLE
2
LTYPE
70
5
0
LTYPE
2
CONTINUOUS
70
0
3
Durchgezogen
72
65
73
0
40
0.000000
0
LTYPE
2
DASHED
70
0
3
Strichlinie ___ ___ ___
72
65
73
2
40
6.000000
49
4.000000
49
-2.000000
0
LTYPE
2
DOTTED
70
0
3
Punktlinie . . . . .
72
65
73
2
40
1.600000
49
0.000000
49
-1.600000
0
LTYPE
2
CENTER
70
0
3
Strichpunktlinie ____ _ ____
72
65
73
4
40
16.500000
49
12.000000
49
-2.000000
49
0.500000
49
-2.000000
0
LTYPE
2
PHANTOM
70
0
3
Strichzweipunkt ___ _ _ ___
72
65
73
6
40
19.000000
49
12.000000
49
-2.000000
49
0.500000
49
-2.000000
49
0.500000
49
-2.000000
0
ENDTAB
0
TABLE
2
LAYER
70
8
0
LAYER
2
Kontur
70
0
62
7
6
CONTINUOUS
0
LAYER
2
Verdeckt
70
0
62
8
6
DASHED
0
LAYER
2
Mittellinie
70
0
62
230
6
CENTER
0
LAYER
2
Bemassung
70
0
62
8
6
CONTINUOUS
0
LAYER
2
Schraffur
70
0
62
8
6
CONTINUOUS
0
LAYER
2
Hilfslinie
70
0
62
253
6
CONTINUOUS
0
LAYER
2
Text
70
0
62
7
6
CONTINUOUS
0
LAYER
2
Rahmen
70
0
62
7
6
CONTINUOUS
0
ENDTAB
0
TABLE
2
STYLE
70
1
0
STYLE
2
STANDARD
70
0
40
0.000000
41
0.850000
50
0.000000
71
0
42
3.500000
3
isocp.shx
4

0
ENDTAB
0
ENDSEC
0
SECTION
2
ENTITIES
0
LINE
8
Kontur
10
100.000000
20
155.000000
30
0.000000
11
200.000000
21
155.000000
31
0.000000
0
LINE
8
Kontur
10
200.000000
20
155.000000
30
0.000000
11
202.225209
21
155.250721
31
0.000000
0
LINE
8
Kontur
10
202.225209
20
155.250721
30
0.000000
11
204.338837
21
155.990311
31
0.000000
0
LINE
8
Kontur
10
204.338837
20
155.990311
30
0.000000
11
206.234898
21
157.181685
31
0.000000
0
LINE
8
Kontur
10
206.234898
20
157.181685
30
0.000000
11
207.818315
21
158.765102
31
0.000000
0
LINE
8
Kontur
10
207.818315
20
158.765102
30
0.000000
11
209.009689
21
160.661163
31
0.000000
0
LINE
8
Kontur
10
209.009689
20
160.661163
30
0.000000
11
209.749279
21
162.774791
31
0.000000
0
LINE
8
Kontur
10
209.749279
20
162.774791
30
0.000000
11
210.000000
21
165.000000
31
0.000000
0
LINE
8
Kontur
10
210.000000
20
165.000000
30
0.000000
11
210.000000
21
215.000000
31
0.000000
0
LINE
8
Kontur
10
209.749279
20
217.225209
30
0.000000
11
210.000000
21
215.000000
31
0.000000
0
LINE
8
Kontur
10
209.009689
20
219.338837
30
0.000000
11
209.749279
21
217.225209
31
0.000000
0
LINE
8
Kontur
10
207.818315
20
221.234898
30
0.000000
11
209.009689
21
219.338837
31
0.000000
0
LINE
8
Kontur
10
206.234898
20
222.818315
30
0.000000
11
207.818315
21
221.234898
31
0.000000
0
LINE
8
Kontur
10
204.338837
20
224.009689
30
0.000000
11
206.234898
21
222.818315
31
0.000000
0
LINE
8
Kontur
10
202.225209
20
224.749279
30
0.000000
11
204.338837
21
224.009689
31
0.000000
0
LINE
8
Kontur
10
200.000000
20
225.000000
30
0.000000
11
202.225209
21
224.749279
31
0.000000
0
LINE
8
Kontur
10
100.000000
20
225.000000
30
0.000000
11
200.000000
21
225.000000
31
0.000000
0
LINE
8
Kontur
10
97.774791
20
224.749279
30
0.000000
11
100.000000
21
225.000000
31
0.000000
0
LINE
8
Kontur
10
95.661163
20
224.009689
30
0.000000
11
97.774791
21
224.749279
31
0.000000
0
LINE
8
Kontur
10
93.765102
20
222.818315
30
0.000000
11
95.661163
21
224.009689
31
0.000000
0
LINE
8
Kontur
10
92.181685
20
221.234898
30
0.000000
11
93.765102
21
222.818315
31
0.000000
0
LINE
8
Kontur
10
90.990311
20
219.338837
30
0.000000
11
92.181685
21
221.234898
31
0.000000
0
LINE
8
Kontur
10
90.250721
20
217.225209
30
0.000000
11
90.990311
21
219.338837
31
0.000000
0
LINE
8
Kontur
10
90.000000
20
215.000000
30
0.000000
11
90.250721
21
217.225209
31
0.000000
0
LINE
8
Kontur
10
90.000000
20
165.000000
30
0.000000
11
90.000000
21
215.000000
31
0.000000
0
LINE
8
Kontur
10
90.000000
20
165.000000
30
0.000000
11
90.250721
21
162.774791
31
0.000000
0
LINE
8
Kontur
10
90.250721
20
162.774791
30
0.000000
11
90.990311
21
160.661163
31
0.000000
0
LINE
8
Kontur
10
90.990311
20
160.661163
30
0.000000
11
92.181685
21
158.765102
31
0.000000
0
LINE
8
Kontur
10
92.181685
20
158.765102
30
0.000000
11
93.765102
21
157.181685
31
0.000000
0
LINE
8
Kontur
10
93.765102
20
157.181685
30
0.000000
11
95.661163
21
155.990311
31
0.000000
0
LINE
8
Kontur
10
95.661163
20
155.990311
30
0.000000
11
97.774791
21
155.250721
31
0.000000
0
LINE
8
Kontur
10
97.774791
20
155.250721
30
0.000000
11
100.000000
21
155.000000
31
0.000000
0
LINE
8
Kontur
10
131.591110
20
186.894171
30
0.000000
11
131.897338
21
188.433686
31
0.000000
0
LINE
8
Kontur
10
131.086554
20
185.407799
30
0.000000
11
131.591110
21
186.894171
31
0.000000
0
LINE
8
Kontur
10
130.392305
20
184.000000
30
0.000000
11
131.086554
21
185.407799
31
0.000000
0
LINE
8
Kontur
10
129.520240
20
182.694863
30
0.000000
11
130.392305
21
184.000000
31
0.000000
0
LINE
8
Kontur
10
128.485281
20
181.514719
30
0.000000
11
129.520240
21
182.694863
31
0.000000
0
LINE
8
Kontur
10
127.305137
20
180.479760
30
0.000000
11
128.485281
21
181.514719
31
0.000000
0
LINE
8
Kontur
10
126.000000
20
179.607695
30
0.000000
11
127.305137
21
180.479760
31
0.000000
0
LINE
8
Kontur
10
124.592201
20
178.913446
30
0.000000
11
126.000000
21
179.607695
31
0.000000
0
LINE
8
Kontur
10
123.105829
20
178.408890
30
0.000000
11
124.592201
21
178.913446
31
0.000000
0
LINE
8
Kontur
10
121.566314
20
178.102662
30
0.000000
11
123.105829
21
178.408890
31
0.000000
0
LINE
8
Kontur
10
120.000000
20
178.000000
30
0.000000
11
121.566314
21
178.102662
31
0.000000
0
LINE
8
Kontur
10
118.433686
20
178.102662
30
0.000000
11
120.000000
21
178.000000
31
0.000000
0
LINE
8
Kontur
10
116.894171
20
178.408890
30
0.000000
11
118.433686
21
178.102662
31
0.000000
0
LINE
8
Kontur
10
115.407799
20
178.913446
30
0.000000
11
116.894171
21
178.408890
31
0.000000
0
LINE
8
Kontur
10
114.000000
20
179.607695
30
0.000000
11
115.407799
21
178.913446
31
0.000000
0
LINE
8
Kontur
10
112.694863
20
180.479760
30
0.000000
11
114.000000
21
179.607695
31
0.000000
0
LINE
8
Kontur
10
111.514719
20
181.514719
30
0.000000
11
112.694863
21
180.479760
31
0.000000
0
LINE
8
Kontur
10
110.479760
20
182.694863
30
0.000000
11
111.514719
21
181.514719
31
0.000000
0
LINE
8
Kontur
10
109.607695
20
184.000000
30
0.000000
11
110.479760
21
182.694863
31
0.000000
0
LINE
8
Kontur
10
108.913446
20
185.407799
30
0.000000
11
109.607695
21
184.000000
31
0.000000
0
LINE
8
Kontur
10
108.408890
20
186.894171
30
0.000000
11
108.913446
21
185.407799
31
0.000000
0
LINE
8
Kontur
10
108.102662
20
188.433686
30
0.000000
11
108.408890
21
186.894171
31
0.000000
0
LINE
8
Kontur
10
108.000000
20
190.000000
30
0.000000
11
108.102662
21
188.433686
31
0.000000
0
LINE
8
Kontur
10
108.000000
20
190.000000
30
0.000000
11
108.102662
21
191.566314
31
0.000000
0
LINE
8
Kontur
10
108.102662
20
191.566314
30
0.000000
11
108.408890
21
193.105829
31
0.000000
0
LINE
8
Kontur
10
108.408890
20
193.105829
30
0.000000
11
108.913446
21
194.592201
31
0.000000
0
LINE
8
Kontur
10
108.913446
20
194.592201
30
0.000000
11
109.607695
21
196.000000
31
0.000000
0
LINE
8
Kontur
10
109.607695
20
196.000000
30
0.000000
11
110.479760
21
197.305137
31
0.000000
0
LINE
8
Kontur
10
110.479760
20
197.305137
30
0.000000
11
111.514719
21
198.485281
31
0.000000
0
LINE
8
Kontur
10
111.514719
20
198.485281
30
0.000000
11
112.694863
21
199.520240
31
0.000000
0
LINE
8
Kontur
10
112.694863
20
199.520240
30
0.000000
11
114.000000
21
200.392305
31
0.000000
0
LINE
8
Kontur
10
114.000000
20
200.392305
30
0.000000
11
115.407799
21
201.086554
31
0.000000
0
LINE
8
Kontur
10
115.407799
20
201.086554
30
0.000000
11
116.894171
21
201.591110
31
0.000000
0
LINE
8
Kontur
10
116.894171
20
201.591110
30
0.000000
11
118.433686
21
201.897338
31
0.000000
0
LINE
8
Kontur
10
118.433686
20
201.897338
30
0.000000
11
120.000000
21
202.000000
31
0.000000
0
LINE
8
Kontur
10
120.000000
20
202.000000
30
0.000000
11
121.566314
21
201.897338
31
0.000000
0
LINE
8
Kontur
10
121.566314
20
201.897338
30
0.000000
11
123.105829
21
201.591110
31
0.000000
0
LINE
8
Kontur
10
123.105829
20
201.591110
30
0.000000
11
124.592201
21
201.086554
31
0.000000
0
LINE
8
Kontur
10
124.592201
20
201.086554
30
0.000000
11
126.000000
21
200.392305
31
0.000000
0
LINE
8
Kontur
10
126.000000
20
200.392305
30
0.000000
11
127.305137
21
199.520240
31
0.000000
0
LINE
8
Kontur
10
127.305137
20
199.520240
30
0.000000
11
128.485281
21
198.485281
31
0.000000
0
LINE
8
Kontur
10
128.485281
20
198.485281
30
0.000000
11
129.520240
21
197.305137
31
0.000000
0
LINE
8
Kontur
10
129.520240
20
197.305137
30
0.000000
11
130.392305
21
196.000000
31
0.000000
0
LINE
8
Kontur
10
130.392305
20
196.000000
30
0.000000
11
131.086554
21
194.592201
31
0.000000
0
LINE
8
Kontur
10
131.086554
20
194.592201
30
0.000000
11
131.591110
21
193.105829
31
0.000000
0
LINE
8
Kontur
10
131.591110
20
193.105829
30
0.000000
11
131.897338
21
191.566314
31
0.000000
0
LINE
8
Kontur
10
131.897338
20
191.566314
30
0.000000
11
132.000000
21
190.000000
31
0.000000
0
LINE
8
Kontur
10
131.897338
20
188.433686
30
0.000000
11
132.000000
21
190.000000
31
0.000000
0
LINE
8
Kontur
10
191.591110
20
186.894171
30
0.000000
11
191.897338
21
188.433686
31
0.000000
0
LINE
8
Kontur
10
191.086554
20
185.407799
30
0.000000
11
191.591110
21
186.894171
31
0.000000
0
LINE
8
Kontur
10
190.392305
20
184.000000
30
0.000000
11
191.086554
21
185.407799
31
0.000000
0
LINE
8
Kontur
10
189.520240
20
182.694863
30
0.000000
11
190.392305
21
184.000000
31
0.000000
0
LINE
8
Kontur
10
188.485281
20
181.514719
30
0.000000
11
189.520240
21
182.694863
31
0.000000
0
LINE
8
Kontur
10
187.305137
20
180.479760
30
0.000000
11
188.485281
21
181.514719
31
0.000000
0
LINE
8
Kontur
10
186.000000
20
179.607695
30
0.000000
11
187.305137
21
180.479760
31
0.000000
0
LINE
8
Kontur
10
184.592201
20
178.913446
30
0.000000
11
186.000000
21
179.607695
31
0.000000
0
LINE
8
Kontur
10
183.105829
20
178.408890
30
0.000000
11
184.592201
21
178.913446
31
0.000000
0
LINE
8
Kontur
10
181.566314
20
178.102662
30
0.000000
11
183.105829
21
178.408890
31
0.000000
0
LINE
8
Kontur
10
180.000000
20
178.000000
30
0.000000
11
181.566314
21
178.102662
31
0.000000
0
LINE
8
Kontur
10
178.433686
20
178.102662
30
0.000000
11
180.000000
21
178.000000
31
0.000000
0
LINE
8
Kontur
10
176.894171
20
178.408890
30
0.000000
11
178.433686
21
178.102662
31
0.000000
0
LINE
8
Kontur
10
175.407799
20
178.913446
30
0.000000
11
176.894171
21
178.408890
31
0.000000
0
LINE
8
Kontur
10
174.000000
20
179.607695
30
0.000000
11
175.407799
21
178.913446
31
0.000000
0
LINE
8
Kontur
10
172.694863
20
180.479760
30
0.000000
11
174.000000
21
179.607695
31
0.000000
0
LINE
8
Kontur
10
171.514719
20
181.514719
30
0.000000
11
172.694863
21
180.479760
31
0.000000
0
LINE
8
Kontur
10
170.479760
20
182.694863
30
0.000000
11
171.514719
21
181.514719
31
0.000000
0
LINE
8
Kontur
10
169.607695
20
184.000000
30
0.000000
11
170.479760
21
182.694863
31
0.000000
0
LINE
8
Kontur
10
168.913446
20
185.407799
30
0.000000
11
169.607695
21
184.000000
31
0.000000
0
LINE
8
Kontur
10
168.408890
20
186.894171
30
0.000000
11
168.913446
21
185.407799
31
0.000000
0
LINE
8
Kontur
10
168.102662
20
188.433686
30
0.000000
11
168.408890
21
186.894171
31
0.000000
0
LINE
8
Kontur
10
168.000000
20
190.000000
30
0.000000
11
168.102662
21
188.433686
31
0.000000
0
LINE
8
Kontur
10
168.000000
20
190.000000
30
0.000000
11
168.102662
21
191.566314
31
0.000000
0
LINE
8
Kontur
10
168.102662
20
191.566314
30
0.000000
11
168.408890
21
193.105829
31
0.000000
0
LINE
8
Kontur
10
168.408890
20
193.105829
30
0.000000
11
168.913446
21
194.592201
31
0.000000
0
LINE
8
Kontur
10
168.913446
20
194.592201
30
0.000000
11
169.607695
21
196.000000
31
0.000000
0
LINE
8
Kontur
10
169.607695
20
196.000000
30
0.000000
11
170.479760
21
197.305137
31
0.000000
0
LINE
8
Kontur
10
170.479760
20
197.305137
30
0.000000
11
171.514719
21
198.485281
31
0.000000
0
LINE
8
Kontur
10
171.514719
20
198.485281
30
0.000000
11
172.694863
21
199.520240
31
0.000000
0
LINE
8
Kontur
10
172.694863
20
199.520240
30
0.000000
11
174.000000
21
200.392305
31
0.000000
0
LINE
8
Kontur
10
174.000000
20
200.392305
30
0.000000
11
175.407799
21
201.086554
31
0.000000
0
LINE
8
Kontur
10
175.407799
20
201.086554
30
0.000000
11
176.894171
21
201.591110
31
0.000000
0
LINE
8
Kontur
10
176.894171
20
201.591110
30
0.000000
11
178.433686
21
201.897338
31
0.000000
0
LINE
8
Kontur
10
178.433686
20
201.897338
30
0.000000
11
180.000000
21
202.000000
31
0.000000
0
LINE
8
Kontur
10
180.000000
20
202.000000
30
0.000000
11
181.566314
21
201.897338
31
0.000000
0
LINE
8
Kontur
10
181.566314
20
201.897338
30
0.000000
11
183.105829
21
201.591110
31
0.000000
0
LINE
8
Kontur
10
183.105829
20
201.591110
30
0.000000
11
184.592201
21
201.086554
31
0.000000
0
LINE
8
Kontur
10
184.592201
20
201.086554
30
0.000000
11
186.000000
21
200.392305
31
0.000000
0
LINE
8
Kontur
10
186.000000
20
200.392305
30
0.000000
11
187.305137
21
199.520240
31
0.000000
0
LINE
8
Kontur
10
187.305137
20
199.520240
30
0.000000
11
188.485281
21
198.485281
31
0.000000
0
LINE
8
Kontur
10
188.485281
20
198.485281
30
0.000000
11
189.520240
21
197.305137
31
0.000000
0
LINE
8
Kontur
10
189.520240
20
197.305137
30
0.000000
11
190.392305
21
196.000000
31
0.000000
0
LINE
8
Kontur
10
190.392305
20
196.000000
30
0.000000
11
191.086554
21
194.592201
31
0.000000
0
LINE
8
Kontur
10
191.086554
20
194.592201
30
0.000000
11
191.591110
21
193.105829
31
0.000000
0
LINE
8
Kontur
10
191.591110
20
193.105829
30
0.000000
11
191.897338
21
191.566314
31
0.000000
0
LINE
8
Kontur
10
191.897338
20
191.566314
30
0.000000
11
192.000000
21
190.000000
31
0.000000
0
LINE
8
Kontur
10
191.897338
20
188.433686
30
0.000000
11
192.000000
21
190.000000
31
0.000000
0
LINE
8
Mittellinie
10
103.000000
20
190.000000
30
0.000000
11
137.000000
21
190.000000
31
0.000000
0
LINE
8
Mittellinie
10
120.000000
20
173.000000
30
0.000000
11
120.000000
21
207.000000
31
0.000000
0
LINE
8
Mittellinie
10
163.000000
20
190.000000
30
0.000000
11
197.000000
21
190.000000
31
0.000000
0
LINE
8
Mittellinie
10
180.000000
20
173.000000
30
0.000000
11
180.000000
21
207.000000
31
0.000000
0
TEXT
8
Text
10
150.000000
20
146.000000
30
0.000000
40
5.000000
1
Vorderansicht
50
0.000000
7
STANDARD
72
1
11
150.000000
21
146.000000
31
0.000000
0
LINE
8
Kontur
10
210.000000
20
111.000000
30
0.000000
11
210.000000
21
125.000000
31
0.000000
0
LINE
8
Kontur
10
90.000000
20
125.000000
30
0.000000
11
210.000000
21
125.000000
31
0.000000
0
LINE
8
Kontur
10
90.000000
20
111.000000
30
0.000000
11
210.000000
21
111.000000
31
0.000000
0
LINE
8
Kontur
10
90.000000
20
111.000000
30
0.000000
11
90.000000
21
125.000000
31
0.000000
0
LINE
8
Verdeckt
10
100.000000
20
111.000000
30
0.000000
11
100.000000
21
125.000000
31
0.000000
0
LINE
8
Verdeckt
10
108.000000
20
111.000000
30
0.000000
11
108.000000
21
125.000000
31
0.000000
0
LINE
8
Verdeckt
10
132.000000
20
111.000000
30
0.000000
11
132.000000
21
125.000000
31
0.000000
0
LINE
8
Verdeckt
10
168.000000
20
111.000000
30
0.000000
11
168.000000
21
125.000000
31
0.000000
0
LINE
8
Verdeckt
10
192.000000
20
111.000000
30
0.000000
11
192.000000
21
125.000000
31
0.000000
0
LINE
8
Mittellinie
10
120.000000
20
130.000000
30
0.000000
11
120.000000
21
106.000000
31
0.000000
0
LINE
8
Mittellinie
10
180.000000
20
130.000000
30
0.000000
11
180.000000
21
106.000000
31
0.000000
0
TEXT
8
Text
10
150.000000
20
102.000000
30
0.000000
40
5.000000
1
Draufsicht
50
0.000000
7
STANDARD
72
1
11
150.000000
21
102.000000
31
0.000000
0
LINE
8
Kontur
10
240.000000
20
155.000000
30
0.000000
11
254.000000
21
155.000000
31
0.000000
0
LINE
8
Kontur
10
240.000000
20
225.000000
30
0.000000
11
254.000000
21
225.000000
31
0.000000
0
LINE
8
Kontur
10
240.000000
20
155.000000
30
0.000000
11
240.000000
21
225.000000
31
0.000000
0
LINE
8
Kontur
10
254.000000
20
155.000000
30
0.000000
11
254.000000
21
225.000000
31
0.000000
0
LINE
8
Verdeckt
10
240.000000
20
178.000000
30
0.000000
11
254.000000
21
178.000000
31
0.000000
0
LINE
8
Verdeckt
10
240.000000
20
202.000000
30
0.000000
11
254.000000
21
202.000000
31
0.000000
0
LINE
8
Mittellinie
10
235.000000
20
190.000000
30
0.000000
11
259.000000
21
190.000000
31
0.000000
0
LINE
8
Mittellinie
10
235.000000
20
190.000000
30
0.000000
11
259.000000
21
190.000000
31
0.000000
0
TEXT
8
Text
10
247.000000
20
146.000000
30
0.000000
40
5.000000
1
Ansicht von links
50
0.000000
7
STANDARD
72
1
11
247.000000
21
146.000000
31
0.000000
0
LINE
8
Bemassung
6
CONTINUOUS
10
90.000000
20
154.200000
30
0.000000
11
90.000000
21
131.000000
31
0.000000
0
LINE
8
Bemassung
6
CONTINUOUS
10
210.000000
20
154.200000
30
0.000000
11
210.000000
21
131.000000
31
0.000000
0
LINE
8
Bemassung
6
CONTINUOUS
10
90.000000
20
133.000000
30
0.000000
11
210.000000
21
133.000000
31
0.000000
0
SOLID
8
Bemassung
10
90.000000
20
133.000000
30
0.000000
11
93.500000
21
134.200000
31
0.000000
12
93.500000
22
131.800000
32
0.000000
13
93.500000
23
131.800000
33
0.000000
0
SOLID
8
Bemassung
10
210.000000
20
133.000000
30
0.000000
11
206.500000
21
131.800000
31
0.000000
12
206.500000
22
134.200000
32
0.000000
13
206.500000
23
134.200000
33
0.000000
0
TEXT
8
Bemassung
10
150.000000
20
134.000000
30
0.000000
40
3.500000
1
120
50
0.000000
7
STANDARD
72
1
11
150.000000
21
134.000000
31
0.000000
0
LINE
8
Bemassung
6
CONTINUOUS
10
210.800000
20
155.000000
30
0.000000
11
234.000000
21
155.000000
31
0.000000
0
LINE
8
Bemassung
6
CONTINUOUS
10
210.800000
20
225.000000
30
0.000000
11
234.000000
21
225.000000
31
0.000000
0
LINE
8
Bemassung
6
CONTINUOUS
10
232.000000
20
155.000000
30
0.000000
11
232.000000
21
225.000000
31
0.000000
0
SOLID
8
Bemassung
10
232.000000
20
155.000000
30
0.000000
11
230.800000
21
158.500000
31
0.000000
12
233.200000
22
158.500000
32
0.000000
13
233.200000
23
158.500000
33
0.000000
0
SOLID
8
Bemassung
10
232.000000
20
225.000000
30
0.000000
11
233.200000
21
221.500000
31
0.000000
12
230.800000
22
221.500000
32
0.000000
13
230.800000
23
221.500000
33
0.000000
0
TEXT
8
Bemassung
10
231.000000
20
190.000000
30
0.000000
40
3.500000
1
70
50
90.000000
7
STANDARD
72
1
11
231.000000
21
190.000000
31
0.000000
0
LINE
8
Bemassung
6
CONTINUOUS
10
120.000000
20
190.800000
30
0.000000
11
120.000000
21
245.000000
31
0.000000
0
LINE
8
Bemassung
6
CONTINUOUS
10
180.000000
20
190.800000
30
0.000000
11
180.000000
21
245.000000
31
0.000000
0
LINE
8
Bemassung
6
CONTINUOUS
10
120.000000
20
243.000000
30
0.000000
11
180.000000
21
243.000000
31
0.000000
0
SOLID
8
Bemassung
10
120.000000
20
243.000000
30
0.000000
11
123.500000
21
244.200000
31
0.000000
12
123.500000
22
241.800000
32
0.000000
13
123.500000
23
241.800000
33
0.000000
0
SOLID
8
Bemassung
10
180.000000
20
243.000000
30
0.000000
11
176.500000
21
241.800000
31
0.000000
12
176.500000
22
244.200000
32
0.000000
13
176.500000
23
244.200000
33
0.000000
0
TEXT
8
Bemassung
10
150.000000
20
244.000000
30
0.000000
40
3.500000
1
60
50
0.000000
7
STANDARD
72
1
11
150.000000
21
244.000000
31
0.000000
0
LINE
8
Bemassung
6
CONTINUOUS
10
128.484000
20
181.516000
30
0.000000
11
111.516000
21
198.484000
31
0.000000
0
SOLID
8
Bemassung
10
128.484000
20
181.516000
30
0.000000
11
125.160598
21
183.142346
31
0.000000
12
126.857654
22
184.839402
32
0.000000
13
126.857654
23
184.839402
33
0.000000
0
SOLID
8
Bemassung
10
111.516000
20
198.484000
30
0.000000
11
114.839402
21
196.857654
31
0.000000
12
113.142346
22
195.160598
32
0.000000
13
113.142346
23
195.160598
33
0.000000
0
LINE
8
Bemassung
6
CONTINUOUS
10
111.516000
20
198.484000
30
0.000000
11
60.000000
21
239.000000
31
0.000000
0
LINE
8
Bemassung
6
CONTINUOUS
10
60.000000
20
239.000000
30
0.000000
11
54.750000
21
239.000000
31
0.000000
0
TEXT
8
Bemassung
10
53.750000
20
240.000000
30
0.000000
40
3.500000
1
Ø24
50
0.000000
7
STANDARD
72
2
11
53.750000
21
240.000000
31
0.000000
0
LINE
8
Bemassung
6
CONTINUOUS
10
100.000000
20
165.000000
30
0.000000
11
92.930000
21
157.930000
31
0.000000
0
SOLID
8
Bemassung
10
92.930000
20
157.930000
30
0.000000
11
94.556346
21
161.253402
31
0.000000
12
96.253402
22
159.556346
32
0.000000
13
96.253402
23
159.556346
33
0.000000
0
LINE
8
Bemassung
6
CONTINUOUS
10
92.930000
20
157.930000
30
0.000000
11
58.000000
21
137.000000
31
0.000000
0
LINE
8
Bemassung
6
CONTINUOUS
10
58.000000
20
137.000000
30
0.000000
11
52.750000
21
137.000000
31
0.000000
0
TEXT
8
Bemassung
10
51.750000
20
138.000000
30
0.000000
40
3.500000
1
R10
50
0.000000
7
STANDARD
72
2
11
51.750000
21
138.000000
31
0.000000
0
TEXT
8
Text
10
150.000000
20
265.000000
30
0.000000
40
3.500000
1
Kanten gebrochen 0,5 x 45°
50
0.000000
7
STANDARD
72
1
11
150.000000
21
265.000000
31
0.000000
0
POLYLINE
8
Rahmen
6
CONTINUOUS
66
1
10
0.000000
20
0.000000
30
0.000000
70
1
0
VERTEX
8
Rahmen
10
0.000000
20
0.000000
30
0.000000
0
VERTEX
8
Rahmen
10
420.000000
20
0.000000
30
0.000000
0
VERTEX
8
Rahmen
10
420.000000
20
297.000000
30
0.000000
0
VERTEX
8
Rahmen
10
0.000000
20
297.000000
30
0.000000
0
SEQEND
8
Rahmen
0
POLYLINE
8
Rahmen
6
CONTINUOUS
66
1
10
0.000000
20
0.000000
30
0.000000
70
1
0
VERTEX
8
Rahmen
10
20.000000
20
10.000000
30
0.000000
0
VERTEX
8
Rahmen
10
410.000000
20
10.000000
30
0.000000
0
VERTEX
8
Rahmen
10
410.000000
20
287.000000
30
0.000000
0
VERTEX
8
Rahmen
10
20.000000
20
287.000000
30
0.000000
0
SEQEND
8
Rahmen
0
POLYLINE
8
Rahmen
6
CONTINUOUS
66
1
10
0.000000
20
0.000000
30
0.000000
70
1
0
VERTEX
8
Rahmen
10
230.000000
20
10.000000
30
0.000000
0
VERTEX
8
Rahmen
10
410.000000
20
10.000000
30
0.000000
0
VERTEX
8
Rahmen
10
410.000000
20
73.000000
30
0.000000
0
VERTEX
8
Rahmen
10
230.000000
20
73.000000
30
0.000000
0
SEQEND
8
Rahmen
0
POLYLINE
8
Rahmen
6
CONTINUOUS
66
1
10
0.000000
20
0.000000
30
0.000000
70
1
0
VERTEX
8
Rahmen
10
230.000000
20
62.500000
30
0.000000
0
VERTEX
8
Rahmen
10
340.000000
20
62.500000
30
0.000000
0
VERTEX
8
Rahmen
10
340.000000
20
73.000000
30
0.000000
0
VERTEX
8
Rahmen
10
230.000000
20
73.000000
30
0.000000
0
SEQEND
8
Rahmen
0
TEXT
8
Rahmen
10
231.200000
20
70.200000
30
0.000000
40
2.000000
1
Firma / Verantwortliche Abteilung
50
0.000000
7
STANDARD
72
0
0
TEXT
8
Rahmen
10
285.000000
20
64.100000
30
0.000000
40
4.000000
1
DARO Konstruktion
50
0.000000
7
STANDARD
72
1
11
285.000000
21
64.100000
31
0.000000
0
POLYLINE
8
Rahmen
6
CONTINUOUS
66
1
10
0.000000
20
0.000000
30
0.000000
70
1
0
VERTEX
8
Rahmen
10
230.000000
20
52.000000
30
0.000000
0
VERTEX
8
Rahmen
10
285.000000
20
52.000000
30
0.000000
0
VERTEX
8
Rahmen
10
285.000000
20
62.500000
30
0.000000
0
VERTEX
8
Rahmen
10
230.000000
20
62.500000
30
0.000000
0
SEQEND
8
Rahmen
0
TEXT
8
Rahmen
10
231.200000
20
59.700000
30
0.000000
40
2.000000
1
Erstellt durch
50
0.000000
7
STANDARD
72
0
0
TEXT
8
Rahmen
10
257.500000
20
53.600000
30
0.000000
40
4.000000
1
D. Rodriguez
50
0.000000
7
STANDARD
72
1
11
257.500000
21
53.600000
31
0.000000
0
POLYLINE
8
Rahmen
6
CONTINUOUS
66
1
10
0.000000
20
0.000000
30
0.000000
70
1
0
VERTEX
8
Rahmen
10
285.000000
20
52.000000
30
0.000000
0
VERTEX
8
Rahmen
10
340.000000
20
52.000000
30
0.000000
0
VERTEX
8
Rahmen
10
340.000000
20
62.500000
30
0.000000
0
VERTEX
8
Rahmen
10
285.000000
20
62.500000
30
0.000000
0
SEQEND
8
Rahmen
0
TEXT
8
Rahmen
10
286.200000
20
59.700000
30
0.000000
40
2.000000
1
Datum
50
0.000000
7
STANDARD
72
0
0
TEXT
8
Rahmen
10
312.500000
20
53.600000
30
0.000000
40
4.000000
1
05.09.2026
50
0.000000
7
STANDARD
72
1
11
312.500000
21
53.600000
31
0.000000
0
POLYLINE
8
Rahmen
6
CONTINUOUS
66
1
10
0.000000
20
0.000000
30
0.000000
70
1
0
VERTEX
8
Rahmen
10
230.000000
20
41.500000
30
0.000000
0
VERTEX
8
Rahmen
10
285.000000
20
41.500000
30
0.000000
0
VERTEX
8
Rahmen
10
285.000000
20
52.000000
30
0.000000
0
VERTEX
8
Rahmen
10
230.000000
20
52.000000
30
0.000000
0
SEQEND
8
Rahmen
0
TEXT
8
Rahmen
10
231.200000
20
49.200000
30
0.000000
40
2.000000
1
Geprüft durch
50
0.000000
7
STANDARD
72
0
0
TEXT
8
Rahmen
10
257.500000
20
43.100000
30
0.000000
40
4.000000
1
M. Keller
50
0.000000
7
STANDARD
72
1
11
257.500000
21
43.100000
31
0.000000
0
POLYLINE
8
Rahmen
6
CONTINUOUS
66
1
10
0.000000
20
0.000000
30
0.000000
70
1
0
VERTEX
8
Rahmen
10
285.000000
20
41.500000
30
0.000000
0
VERTEX
8
Rahmen
10
340.000000
20
41.500000
30
0.000000
0
VERTEX
8
Rahmen
10
340.000000
20
52.000000
30
0.000000
0
VERTEX
8
Rahmen
10
285.000000
20
52.000000
30
0.000000
0
SEQEND
8
Rahmen
0
TEXT
8
Rahmen
10
286.200000
20
49.200000
30
0.000000
40
2.000000
1
Dokumentenart
50
0.000000
7
STANDARD
72
0
0
TEXT
8
Rahmen
10
312.500000
20
43.100000
30
0.000000
40
4.000000
1
Technische Zeichnung
50
0.000000
7
STANDARD
72
1
11
312.500000
21
43.100000
31
0.000000
0
POLYLINE
8
Rahmen
6
CONTINUOUS
66
1
10
0.000000
20
0.000000
30
0.000000
70
1
0
VERTEX
8
Rahmen
10
230.000000
20
31.000000
30
0.000000
0
VERTEX
8
Rahmen
10
340.000000
20
31.000000
30
0.000000
0
VERTEX
8
Rahmen
10
340.000000
20
41.500000
30
0.000000
0
VERTEX
8
Rahmen
10
230.000000
20
41.500000
30
0.000000
0
SEQEND
8
Rahmen
0
TEXT
8
Rahmen
10
231.200000
20
38.700000
30
0.000000
40
2.000000
1
Werkstoff / Halbzeug
50
0.000000
7
STANDARD
72
0
0
TEXT
8
Rahmen
10
285.000000
20
32.600000
30
0.000000
40
4.000000
1
S235JR
50
0.000000
7
STANDARD
72
1
11
285.000000
21
32.600000
31
0.000000
0
POLYLINE
8
Rahmen
6
CONTINUOUS
66
1
10
0.000000
20
0.000000
30
0.000000
70
1
0
VERTEX
8
Rahmen
10
230.000000
20
20.500000
30
0.000000
0
VERTEX
8
Rahmen
10
285.000000
20
20.500000
30
0.000000
0
VERTEX
8
Rahmen
10
285.000000
20
31.000000
30
0.000000
0
VERTEX
8
Rahmen
10
230.000000
20
31.000000
30
0.000000
0
SEQEND
8
Rahmen
0
TEXT
8
Rahmen
10
231.200000
20
28.200000
30
0.000000
40
2.000000
1
Allgemeintoleranz
50
0.000000
7
STANDARD
72
0
0
TEXT
8
Rahmen
10
257.500000
20
22.100000
30
0.000000
40
4.000000
1
ISO 2768-mK
50
0.000000
7
STANDARD
72
1
11
257.500000
21
22.100000
31
0.000000
0
POLYLINE
8
Rahmen
6
CONTINUOUS
66
1
10
0.000000
20
0.000000
30
0.000000
70
1
0
VERTEX
8
Rahmen
10
285.000000
20
20.500000
30
0.000000
0
VERTEX
8
Rahmen
10
340.000000
20
20.500000
30
0.000000
0
VERTEX
8
Rahmen
10
340.000000
20
31.000000
30
0.000000
0
VERTEX
8
Rahmen
10
285.000000
20
31.000000
30
0.000000
0
SEQEND
8
Rahmen
0
TEXT
8
Rahmen
10
286.200000
20
28.200000
30
0.000000
40
2.000000
1
Oberfläche
50
0.000000
7
STANDARD
72
0
0
TEXT
8
Rahmen
10
312.500000
20
22.100000
30
0.000000
40
4.000000
1
Ra 3,2
50
0.000000
7
STANDARD
72
1
11
312.500000
21
22.100000
31
0.000000
0
POLYLINE
8
Rahmen
6
CONTINUOUS
66
1
10
0.000000
20
0.000000
30
0.000000
70
1
0
VERTEX
8
Rahmen
10
230.000000
20
10.000000
30
0.000000
0
VERTEX
8
Rahmen
10
267.000000
20
10.000000
30
0.000000
0
VERTEX
8
Rahmen
10
267.000000
20
20.500000
30
0.000000
0
VERTEX
8
Rahmen
10
230.000000
20
20.500000
30
0.000000
0
SEQEND
8
Rahmen
0
TEXT
8
Rahmen
10
231.200000
20
17.700000
30
0.000000
40
2.000000
1
Maßstab
50
0.000000
7
STANDARD
72
0
0
TEXT
8
Rahmen
10
248.500000
20
11.600000
30
0.000000
40
4.000000
1
1:1
50
0.000000
7
STANDARD
72
1
11
248.500000
21
11.600000
31
0.000000
0
POLYLINE
8
Rahmen
6
CONTINUOUS
66
1
10
0.000000
20
0.000000
30
0.000000
70
1
0
VERTEX
8
Rahmen
10
267.000000
20
10.000000
30
0.000000
0
VERTEX
8
Rahmen
10
304.000000
20
10.000000
30
0.000000
0
VERTEX
8
Rahmen
10
304.000000
20
20.500000
30
0.000000
0
VERTEX
8
Rahmen
10
267.000000
20
20.500000
30
0.000000
0
SEQEND
8
Rahmen
0
TEXT
8
Rahmen
10
268.200000
20
17.700000
30
0.000000
40
2.000000
1
Gewicht
50
0.000000
7
STANDARD
72
0
0
TEXT
8
Rahmen
10
285.500000
20
11.600000
30
0.000000
40
4.000000
1
0,81 kg
50
0.000000
7
STANDARD
72
1
11
285.500000
21
11.600000
31
0.000000
0
POLYLINE
8
Rahmen
6
CONTINUOUS
66
1
10
0.000000
20
0.000000
30
0.000000
70
1
0
VERTEX
8
Rahmen
10
304.000000
20
10.000000
30
0.000000
0
VERTEX
8
Rahmen
10
340.000000
20
10.000000
30
0.000000
0
VERTEX
8
Rahmen
10
340.000000
20
20.500000
30
0.000000
0
VERTEX
8
Rahmen
10
304.000000
20
20.500000
30
0.000000
0
SEQEND
8
Rahmen
0
TEXT
8
Rahmen
10
305.200000
20
17.700000
30
0.000000
40
2.000000
1
Einheit
50
0.000000
7
STANDARD
72
0
0
TEXT
8
Rahmen
10
322.000000
20
11.600000
30
0.000000
40
4.000000
1
mm
50
0.000000
7
STANDARD
72
1
11
322.000000
21
11.600000
31
0.000000
0
POLYLINE
8
Rahmen
6
CONTINUOUS
66
1
10
0.000000
20
0.000000
30
0.000000
70
1
0
VERTEX
8
Rahmen
10
340.000000
20
52.000000
30
0.000000
0
VERTEX
8
Rahmen
10
410.000000
20
52.000000
30
0.000000
0
VERTEX
8
Rahmen
10
410.000000
20
73.000000
30
0.000000
0
VERTEX
8
Rahmen
10
340.000000
20
73.000000
30
0.000000
0
SEQEND
8
Rahmen
0
TEXT
8
Rahmen
10
341.200000
20
70.200000
30
0.000000
40
2.000000
1
Benennung
50
0.000000
7
STANDARD
72
0
0
TEXT
8
Rahmen
10
375.000000
20
59.500000
30
0.000000
40
6.000000
1
Lagerplatte
50
0.000000
7
STANDARD
72
1
11
375.000000
21
59.500000
31
0.000000
0
POLYLINE
8
Rahmen
6
CONTINUOUS
66
1
10
0.000000
20
0.000000
30
0.000000
70
1
0
VERTEX
8
Rahmen
10
340.000000
20
31.000000
30
0.000000
0
VERTEX
8
Rahmen
10
410.000000
20
31.000000
30
0.000000
0
VERTEX
8
Rahmen
10
410.000000
20
52.000000
30
0.000000
0
VERTEX
8
Rahmen
10
340.000000
20
52.000000
30
0.000000
0
SEQEND
8
Rahmen
0
TEXT
8
Rahmen
10
341.200000
20
49.200000
30
0.000000
40
2.000000
1
Zeichnungsnummer
50
0.000000
7
STANDARD
72
0
0
TEXT
8
Rahmen
10
375.000000
20
38.000000
30
0.000000
40
7.000000
1
DC-1001
50
0.000000
7
STANDARD
72
1
11
375.000000
21
38.000000
31
0.000000
0
POLYLINE
8
Rahmen
6
CONTINUOUS
66
1
10
0.000000
20
0.000000
30
0.000000
70
1
0
VERTEX
8
Rahmen
10
340.000000
20
20.500000
30
0.000000
0
VERTEX
8
Rahmen
10
375.000000
20
20.500000
30
0.000000
0
VERTEX
8
Rahmen
10
375.000000
20
31.000000
30
0.000000
0
VERTEX
8
Rahmen
10
340.000000
20
31.000000
30
0.000000
0
SEQEND
8
Rahmen
0
TEXT
8
Rahmen
10
341.200000
20
28.200000
30
0.000000
40
2.000000
1
Projektion
50
0.000000
7
STANDARD
72
0
0
POLYLINE
8
Rahmen
6
CONTINUOUS
66
1
10
0.000000
20
0.000000
30
0.000000
70
1
0
VERTEX
8
Rahmen
10
375.000000
20
20.500000
30
0.000000
0
VERTEX
8
Rahmen
10
410.000000
20
20.500000
30
0.000000
0
VERTEX
8
Rahmen
10
410.000000
20
31.000000
30
0.000000
0
VERTEX
8
Rahmen
10
375.000000
20
31.000000
30
0.000000
0
SEQEND
8
Rahmen
0
TEXT
8
Rahmen
10
376.200000
20
28.200000
30
0.000000
40
2.000000
1
Format
50
0.000000
7
STANDARD
72
0
0
TEXT
8
Rahmen
10
392.500000
20
22.100000
30
0.000000
40
4.000000
1
A3
50
0.000000
7
STANDARD
72
1
11
392.500000
21
22.100000
31
0.000000
0
POLYLINE
8
Rahmen
6
CONTINUOUS
66
1
10
0.000000
20
0.000000
30
0.000000
70
1
0
VERTEX
8
Rahmen
10
340.000000
20
10.000000
30
0.000000
0
VERTEX
8
Rahmen
10
375.000000
20
10.000000
30
0.000000
0
VERTEX
8
Rahmen
10
375.000000
20
20.500000
30
0.000000
0
VERTEX
8
Rahmen
10
340.000000
20
20.500000
30
0.000000
0
SEQEND
8
Rahmen
0
TEXT
8
Rahmen
10
341.200000
20
17.700000
30
0.000000
40
2.000000
1
Revision
50
0.000000
7
STANDARD
72
0
0
TEXT
8
Rahmen
10
357.500000
20
11.600000
30
0.000000
40
4.000000
1
A
50
0.000000
7
STANDARD
72
1
11
357.500000
21
11.600000
31
0.000000
0
POLYLINE
8
Rahmen
6
CONTINUOUS
66
1
10
0.000000
20
0.000000
30
0.000000
70
1
0
VERTEX
8
Rahmen
10
375.000000
20
10.000000
30
0.000000
0
VERTEX
8
Rahmen
10
410.000000
20
10.000000
30
0.000000
0
VERTEX
8
Rahmen
10
410.000000
20
20.500000
30
0.000000
0
VERTEX
8
Rahmen
10
375.000000
20
20.500000
30
0.000000
0
SEQEND
8
Rahmen
0
TEXT
8
Rahmen
10
376.200000
20
17.700000
30
0.000000
40
2.000000
1
Blatt
50
0.000000
7
STANDARD
72
0
0
TEXT
8
Rahmen
10
392.500000
20
11.600000
30
0.000000
40
4.000000
1
1 / 1
50
0.000000
7
STANDARD
72
1
11
392.500000
21
11.600000
31
0.000000
0
CIRCLE
8
Rahmen
6
CONTINUOUS
10
362.000000
20
24.750000
30
0.000000
40
2.700000
0
CIRCLE
8
Rahmen
6
CONTINUOUS
10
362.000000
20
24.750000
30
0.000000
40
1.680000
0
POLYLINE
8
Rahmen
6
CONTINUOUS
66
1
10
0.000000
20
0.000000
30
0.000000
70
1
0
VERTEX
8
Rahmen
10
350.600000
20
23.070000
30
0.000000
0
VERTEX
8
Rahmen
10
350.600000
20
26.430000
30
0.000000
0
VERTEX
8
Rahmen
10
355.400000
20
27.450000
30
0.000000
0
VERTEX
8
Rahmen
10
355.400000
20
22.050000
30
0.000000
0
SEQEND
8
Rahmen
0
LINE
8
Rahmen
6
CENTER
10
351.800000
20
24.750000
30
0.000000
11
363.200000
21
24.750000
31
0.000000
0
ENDSEC
0
EOF
