0
SECTION
2
HEADER
9
$ACADVER
1
AC1009
9
$INSUNITS
70
4
9
$DWGCODEPAGE
3
ANSI_1252
9
$EXTMIN
10
60.000000
20
90.000000
30
0.000000
9
$EXTMAX
10
178.000000
20
182.000000
30
0.000000
9
$LTSCALE
40
1.000000
9
$TEXTSTYLE
7
STANDARD
0
ENDSEC
0
SECTION
2
TABLES
0
TABLE
2
LTYPE
70
5
0
LTYPE
2
CONTINUOUS
70
0
3
Durchgezogen
72
65
73
0
40
0.000000
0
LTYPE
2
DASHED
70
0
3
Strichlinie ___ ___ ___
72
65
73
2
40
6.000000
49
4.000000
49
-2.000000
0
LTYPE
2
DOTTED
70
0
3
Punktlinie . . . . .
72
65
73
2
40
1.600000
49
0.000000
49
-1.600000
0
LTYPE
2
CENTER
70
0
3
Strichpunktlinie ____ _ ____
72
65
73
4
40
16.500000
49
12.000000
49
-2.000000
49
0.500000
49
-2.000000
0
LTYPE
2
PHANTOM
70
0
3
Strichzweipunkt ___ _ _ ___
72
65
73
6
40
19.000000
49
12.000000
49
-2.000000
49
0.500000
49
-2.000000
49
0.500000
49
-2.000000
0
ENDTAB
0
TABLE
2
LAYER
70
8
0
LAYER
2
Kontur
70
0
62
7
6
CONTINUOUS
0
LAYER
2
Verdeckt
70
0
62
8
6
DASHED
0
LAYER
2
Mittellinie
70
0
62
230
6
CENTER
0
LAYER
2
Bemassung
70
0
62
8
6
CONTINUOUS
0
LAYER
2
Schraffur
70
0
62
8
6
CONTINUOUS
0
LAYER
2
Hilfslinie
70
0
62
253
6
CONTINUOUS
0
LAYER
2
Text
70
0
62
7
6
CONTINUOUS
0
LAYER
2
Rahmen
70
0
62
7
6
CONTINUOUS
0
ENDTAB
0
TABLE
2
STYLE
70
1
0
STYLE
2
STANDARD
70
0
40
0.000000
41
0.850000
50
0.000000
71
0
42
3.500000
3
isocp.shx
4

0
ENDTAB
0
ENDSEC
0
SECTION
2
ENTITIES
0
POLYLINE
8
Kontur
66
1
10
0.000000
20
0.000000
30
0.000000
70
1
0
VERTEX
8
Kontur
10
80.000000
20
110.000000
30
0.000000
0
VERTEX
8
Kontur
10
160.000000
20
110.000000
30
0.000000
0
VERTEX
8
Kontur
10
160.000000
20
118.000000
30
0.000000
0
VERTEX
8
Kontur
10
96.000000
20
118.000000
30
0.000000
42
-0.414214
0
VERTEX
8
Kontur
10
88.000000
20
126.000000
30
0.000000
0
VERTEX
8
Kontur
10
88.000000
20
170.000000
30
0.000000
0
VERTEX
8
Kontur
10
80.000000
20
170.000000
30
0.000000
0
SEQEND
8
Kontur
0
LINE
8
Schraffur
6
CONTINUOUS
10
157.882251
20
110.000000
30
0.000000
11
160.000000
21
112.117749
31
0.000000
0
LINE
8
Schraffur
6
CONTINUOUS
10
153.639610
20
110.000000
30
0.000000
11
160.000000
21
116.360390
31
0.000000
0
LINE
8
Schraffur
6
CONTINUOUS
10
149.396970
20
110.000000
30
0.000000
11
157.396970
21
118.000000
31
0.000000
0
LINE
8
Schraffur
6
CONTINUOUS
10
145.154329
20
110.000000
30
0.000000
11
153.154329
21
118.000000
31
0.000000
0
LINE
8
Schraffur
6
CONTINUOUS
10
140.911688
20
110.000000
30
0.000000
11
148.911688
21
118.000000
31
0.000000
0
LINE
8
Schraffur
6
CONTINUOUS
10
136.669048
20
110.000000
30
0.000000
11
144.669048
21
118.000000
31
0.000000
0
LINE
8
Schraffur
6
CONTINUOUS
10
132.426407
20
110.000000
30
0.000000
11
140.426407
21
118.000000
31
0.000000
0
LINE
8
Schraffur
6
CONTINUOUS
10
128.183766
20
110.000000
30
0.000000
11
136.183766
21
118.000000
31
0.000000
0
LINE
8
Schraffur
6
CONTINUOUS
10
123.941125
20
110.000000
30
0.000000
11
131.941125
21
118.000000
31
0.000000
0
LINE
8
Schraffur
6
CONTINUOUS
10
119.698485
20
110.000000
30
0.000000
11
127.698485
21
118.000000
31
0.000000
0
LINE
8
Schraffur
6
CONTINUOUS
10
115.455844
20
110.000000
30
0.000000
11
123.455844
21
118.000000
31
0.000000
0
LINE
8
Schraffur
6
CONTINUOUS
10
111.213203
20
110.000000
30
0.000000
11
119.213203
21
118.000000
31
0.000000
0
LINE
8
Schraffur
6
CONTINUOUS
10
106.970563
20
110.000000
30
0.000000
11
114.970563
21
118.000000
31
0.000000
0
LINE
8
Schraffur
6
CONTINUOUS
10
102.727922
20
110.000000
30
0.000000
11
110.727922
21
118.000000
31
0.000000
0
LINE
8
Schraffur
6
CONTINUOUS
10
98.485281
20
110.000000
30
0.000000
11
106.485281
21
118.000000
31
0.000000
0
LINE
8
Schraffur
6
CONTINUOUS
10
94.242641
20
110.000000
30
0.000000
11
102.242641
21
118.000000
31
0.000000
0
LINE
8
Schraffur
6
CONTINUOUS
10
90.000000
20
110.000000
30
0.000000
11
98.000000
21
118.000000
31
0.000000
0
LINE
8
Schraffur
6
CONTINUOUS
10
85.757359
20
110.000000
30
0.000000
11
94.034013
21
118.276653
31
0.000000
0
LINE
8
Schraffur
6
CONTINUOUS
10
81.514719
20
110.000000
30
0.000000
11
91.175098
21
119.660380
31
0.000000
0
LINE
8
Schraffur
6
CONTINUOUS
10
80.000000
20
112.727922
30
0.000000
11
89.166860
21
121.894782
31
0.000000
0
LINE
8
Schraffur
6
CONTINUOUS
10
80.000000
20
116.970563
30
0.000000
11
88.092300
21
125.062863
31
0.000000
0
LINE
8
Schraffur
6
CONTINUOUS
10
80.000000
20
121.213203
30
0.000000
11
88.000000
21
129.213203
31
0.000000
0
LINE
8
Schraffur
6
CONTINUOUS
10
80.000000
20
125.455844
30
0.000000
11
88.000000
21
133.455844
31
0.000000
0
LINE
8
Schraffur
6
CONTINUOUS
10
80.000000
20
129.698485
30
0.000000
11
88.000000
21
137.698485
31
0.000000
0
LINE
8
Schraffur
6
CONTINUOUS
10
80.000000
20
133.941125
30
0.000000
11
88.000000
21
141.941125
31
0.000000
0
LINE
8
Schraffur
6
CONTINUOUS
10
80.000000
20
138.183766
30
0.000000
11
88.000000
21
146.183766
31
0.000000
0
LINE
8
Schraffur
6
CONTINUOUS
10
80.000000
20
142.426407
30
0.000000
11
88.000000
21
150.426407
31
0.000000
0
LINE
8
Schraffur
6
CONTINUOUS
10
80.000000
20
146.669048
30
0.000000
11
88.000000
21
154.669048
31
0.000000
0
LINE
8
Schraffur
6
CONTINUOUS
10
80.000000
20
150.911688
30
0.000000
11
88.000000
21
158.911688
31
0.000000
0
LINE
8
Schraffur
6
CONTINUOUS
10
80.000000
20
155.154329
30
0.000000
11
88.000000
21
163.154329
31
0.000000
0
LINE
8
Schraffur
6
CONTINUOUS
10
80.000000
20
159.396970
30
0.000000
11
88.000000
21
167.396970
31
0.000000
0
LINE
8
Schraffur
6
CONTINUOUS
10
80.000000
20
163.639610
30
0.000000
11
86.360390
21
170.000000
31
0.000000
0
LINE
8
Schraffur
6
CONTINUOUS
10
80.000000
20
167.882251
30
0.000000
11
82.117749
21
170.000000
31
0.000000
0
CIRCLE
8
Kontur
10
140.000000
20
114.000000
30
0.000000
40
3.500000
0
LINE
8
Mittellinie
10
132.500000
20
114.000000
30
0.000000
11
147.500000
21
114.000000
31
0.000000
0
LINE
8
Mittellinie
10
140.000000
20
106.500000
30
0.000000
11
140.000000
21
121.500000
31
0.000000
0
LINE
8
Bemassung
6
CONTINUOUS
10
80.000000
20
109.200000
30
0.000000
11
80.000000
21
88.000000
31
0.000000
0
LINE
8
Bemassung
6
CONTINUOUS
10
160.000000
20
109.200000
30
0.000000
11
160.000000
21
88.000000
31
0.000000
0
LINE
8
Bemassung
6
CONTINUOUS
10
80.000000
20
90.000000
30
0.000000
11
160.000000
21
90.000000
31
0.000000
0
SOLID
8
Bemassung
10
80.000000
20
90.000000
30
0.000000
11
83.500000
21
91.200000
31
0.000000
12
83.500000
22
88.800000
32
0.000000
13
83.500000
23
88.800000
33
0.000000
0
SOLID
8
Bemassung
10
160.000000
20
90.000000
30
0.000000
11
156.500000
21
88.800000
31
0.000000
12
156.500000
22
91.200000
32
0.000000
13
156.500000
23
91.200000
33
0.000000
0
TEXT
8
Bemassung
10
120.000000
20
91.000000
30
0.000000
40
3.500000
1
80
50
0.000000
7
STANDARD
72
1
11
120.000000
21
91.000000
31
0.000000
0
LINE
8
Bemassung
6
CONTINUOUS
10
79.200000
20
110.000000
30
0.000000
11
58.000000
21
110.000000
31
0.000000
0
LINE
8
Bemassung
6
CONTINUOUS
10
79.200000
20
170.000000
30
0.000000
11
58.000000
21
170.000000
31
0.000000
0
LINE
8
Bemassung
6
CONTINUOUS
10
60.000000
20
110.000000
30
0.000000
11
60.000000
21
170.000000
31
0.000000
0
SOLID
8
Bemassung
10
60.000000
20
110.000000
30
0.000000
11
58.800000
21
113.500000
31
0.000000
12
61.200000
22
113.500000
32
0.000000
13
61.200000
23
113.500000
33
0.000000
0
SOLID
8
Bemassung
10
60.000000
20
170.000000
30
0.000000
11
61.200000
21
166.500000
31
0.000000
12
58.800000
22
166.500000
32
0.000000
13
58.800000
23
166.500000
33
0.000000
0
TEXT
8
Bemassung
10
59.000000
20
140.000000
30
0.000000
40
3.500000
1
60
50
90.000000
7
STANDARD
72
1
11
59.000000
21
140.000000
31
0.000000
0
LINE
8
Bemassung
6
CONTINUOUS
10
160.800000
20
110.000000
30
0.000000
11
180.000000
21
110.000000
31
0.000000
0
LINE
8
Bemassung
6
CONTINUOUS
10
160.800000
20
118.000000
30
0.000000
11
180.000000
21
118.000000
31
0.000000
0
LINE
8
Bemassung
6
CONTINUOUS
10
178.000000
20
103.000000
30
0.000000
11
178.000000
21
125.000000
31
0.000000
0
SOLID
8
Bemassung
10
178.000000
20
110.000000
30
0.000000
11
179.200000
21
106.500000
31
0.000000
12
176.800000
22
106.500000
32
0.000000
13
176.800000
23
106.500000
33
0.000000
0
SOLID
8
Bemassung
10
178.000000
20
118.000000
30
0.000000
11
176.800000
21
121.500000
31
0.000000
12
179.200000
22
121.500000
32
0.000000
13
179.200000
23
121.500000
33
0.000000
0
TEXT
8
Bemassung
10
177.000000
20
124.500000
30
0.000000
40
3.500000
1
8
50
90.000000
7
STANDARD
72
1
11
177.000000
21
124.500000
31
0.000000
0
SOLID
8
Bemassung
10
140.000000
20
117.500000
30
0.000000
11
138.800000
21
121.000000
31
0.000000
12
141.200000
22
121.000000
32
0.000000
13
141.200000
23
121.000000
33
0.000000
0
LINE
8
Bemassung
6
CONTINUOUS
10
140.000000
20
117.500000
30
0.000000
11
162.000000
21
144.000000
31
0.000000
0
LINE
8
Bemassung
6
CONTINUOUS
10
162.000000
20
144.000000
30
0.000000
11
167.250000
21
144.000000
31
0.000000
0
TEXT
8
Bemassung
10
168.250000
20
145.000000
30
0.000000
40
3.500000
1
Ø7
50
0.000000
7
STANDARD
72
0
0
LINE
8
Bemassung
6
CONTINUOUS
10
96.000000
20
126.000000
30
0.000000
11
90.344000
21
120.344000
31
0.000000
0
SOLID
8
Bemassung
10
90.344000
20
120.344000
30
0.000000
11
91.970346
21
123.667402
31
0.000000
12
93.667402
22
121.970346
32
0.000000
13
93.667402
23
121.970346
33
0.000000
0
LINE
8
Bemassung
6
CONTINUOUS
10
90.344000
20
120.344000
30
0.000000
11
126.000000
21
150.000000
31
0.000000
0
LINE
8
Bemassung
6
CONTINUOUS
10
126.000000
20
150.000000
30
0.000000
11
131.250000
21
150.000000
31
0.000000
0
TEXT
8
Bemassung
10
132.250000
20
151.000000
30
0.000000
40
3.500000
1
R8
50
0.000000
7
STANDARD
72
0
0
LINE
8
Bemassung
6
CONTINUOUS
10
101.213203
20
110.000000
30
0.000000
11
106.000000
21
110.000000
31
0.000000
0
LINE
8
Bemassung
6
CONTINUOUS
10
80.000000
20
131.213203
30
0.000000
11
80.000000
21
136.000000
31
0.000000
0
ARC
8
Bemassung
6
CONTINUOUS
10
80.000000
20
110.000000
30
0.000000
40
21.213203
50
0.000000
51
90.000000
0
SOLID
8
Bemassung
10
101.213203
20
110.000000
30
0.000000
11
100.013203
21
113.500000
31
0.000000
12
102.413203
22
113.500000
32
0.000000
13
102.413203
23
113.500000
33
0.000000
0
SOLID
8
Bemassung
10
80.000000
20
131.213203
30
0.000000
11
83.500000
21
132.413203
31
0.000000
12
83.500000
22
130.013203
32
0.000000
13
83.500000
23
130.013203
33
0.000000
0
TEXT
8
Bemassung
10
96.449569
20
126.449569
30
0.000000
40
3.500000
1
90°
50
0.000000
7
STANDARD
72
1
11
96.449569
21
126.449569
31
0.000000
0
TEXT
8
Text
10
120.000000
20
182.000000
30
0.000000
40
5.000000
1
SCHNITT A-A
50
0.000000
7
STANDARD
72
1
11
120.000000
21
182.000000
31
0.000000
0
POLYLINE
8
Rahmen
6
CONTINUOUS
66
1
10
0.000000
20
0.000000
30
0.000000
70
1
0
VERTEX
8
Rahmen
10
0.000000
20
0.000000
30
0.000000
0
VERTEX
8
Rahmen
10
297.000000
20
0.000000
30
0.000000
0
VERTEX
8
Rahmen
10
297.000000
20
210.000000
30
0.000000
0
VERTEX
8
Rahmen
10
0.000000
20
210.000000
30
0.000000
0
SEQEND
8
Rahmen
0
POLYLINE
8
Rahmen
6
CONTINUOUS
66
1
10
0.000000
20
0.000000
30
0.000000
70
1
0
VERTEX
8
Rahmen
10
20.000000
20
10.000000
30
0.000000
0
VERTEX
8
Rahmen
10
287.000000
20
10.000000
30
0.000000
0
VERTEX
8
Rahmen
10
287.000000
20
200.000000
30
0.000000
0
VERTEX
8
Rahmen
10
20.000000
20
200.000000
30
0.000000
0
SEQEND
8
Rahmen
0
POLYLINE
8
Rahmen
6
CONTINUOUS
66
1
10
0.000000
20
0.000000
30
0.000000
70
1
0
VERTEX
8
Rahmen
10
107.000000
20
10.000000
30
0.000000
0
VERTEX
8
Rahmen
10
287.000000
20
10.000000
30
0.000000
0
VERTEX
8
Rahmen
10
287.000000
20
73.000000
30
0.000000
0
VERTEX
8
Rahmen
10
107.000000
20
73.000000
30
0.000000
0
SEQEND
8
Rahmen
0
POLYLINE
8
Rahmen
6
CONTINUOUS
66
1
10
0.000000
20
0.000000
30
0.000000
70
1
0
VERTEX
8
Rahmen
10
107.000000
20
62.500000
30
0.000000
0
VERTEX
8
Rahmen
10
217.000000
20
62.500000
30
0.000000
0
VERTEX
8
Rahmen
10
217.000000
20
73.000000
30
0.000000
0
VERTEX
8
Rahmen
10
107.000000
20
73.000000
30
0.000000
0
SEQEND
8
Rahmen
0
TEXT
8
Rahmen
10
108.200000
20
70.200000
30
0.000000
40
2.000000
1
Firma / Verantwortliche Abteilung
50
0.000000
7
STANDARD
72
0
0
TEXT
8
Rahmen
10
162.000000
20
64.100000
30
0.000000
40
4.000000
1
DARO Konstruktion
50
0.000000
7
STANDARD
72
1
11
162.000000
21
64.100000
31
0.000000
0
POLYLINE
8
Rahmen
6
CONTINUOUS
66
1
10
0.000000
20
0.000000
30
0.000000
70
1
0
VERTEX
8
Rahmen
10
107.000000
20
52.000000
30
0.000000
0
VERTEX
8
Rahmen
10
162.000000
20
52.000000
30
0.000000
0
VERTEX
8
Rahmen
10
162.000000
20
62.500000
30
0.000000
0
VERTEX
8
Rahmen
10
107.000000
20
62.500000
30
0.000000
0
SEQEND
8
Rahmen
0
TEXT
8
Rahmen
10
108.200000
20
59.700000
30
0.000000
40
2.000000
1
Erstellt durch
50
0.000000
7
STANDARD
72
0
0
TEXT
8
Rahmen
10
134.500000
20
53.600000
30
0.000000
40
4.000000
1
D. Rodriguez
50
0.000000
7
STANDARD
72
1
11
134.500000
21
53.600000
31
0.000000
0
POLYLINE
8
Rahmen
6
CONTINUOUS
66
1
10
0.000000
20
0.000000
30
0.000000
70
1
0
VERTEX
8
Rahmen
10
162.000000
20
52.000000
30
0.000000
0
VERTEX
8
Rahmen
10
217.000000
20
52.000000
30
0.000000
0
VERTEX
8
Rahmen
10
217.000000
20
62.500000
30
0.000000
0
VERTEX
8
Rahmen
10
162.000000
20
62.500000
30
0.000000
0
SEQEND
8
Rahmen
0
TEXT
8
Rahmen
10
163.200000
20
59.700000
30
0.000000
40
2.000000
1
Datum
50
0.000000
7
STANDARD
72
0
0
TEXT
8
Rahmen
10
189.500000
20
53.600000
30
0.000000
40
4.000000
1
05.09.2026
50
0.000000
7
STANDARD
72
1
11
189.500000
21
53.600000
31
0.000000
0
POLYLINE
8
Rahmen
6
CONTINUOUS
66
1
10
0.000000
20
0.000000
30
0.000000
70
1
0
VERTEX
8
Rahmen
10
107.000000
20
41.500000
30
0.000000
0
VERTEX
8
Rahmen
10
162.000000
20
41.500000
30
0.000000
0
VERTEX
8
Rahmen
10
162.000000
20
52.000000
30
0.000000
0
VERTEX
8
Rahmen
10
107.000000
20
52.000000
30
0.000000
0
SEQEND
8
Rahmen
0
TEXT
8
Rahmen
10
108.200000
20
49.200000
30
0.000000
40
2.000000
1
Geprüft durch
50
0.000000
7
STANDARD
72
0
0
POLYLINE
8
Rahmen
6
CONTINUOUS
66
1
10
0.000000
20
0.000000
30
0.000000
70
1
0
VERTEX
8
Rahmen
10
162.000000
20
41.500000
30
0.000000
0
VERTEX
8
Rahmen
10
217.000000
20
41.500000
30
0.000000
0
VERTEX
8
Rahmen
10
217.000000
20
52.000000
30
0.000000
0
VERTEX
8
Rahmen
10
162.000000
20
52.000000
30
0.000000
0
SEQEND
8
Rahmen
0
TEXT
8
Rahmen
10
163.200000
20
49.200000
30
0.000000
40
2.000000
1
Dokumentenart
50
0.000000
7
STANDARD
72
0
0
TEXT
8
Rahmen
10
189.500000
20
43.100000
30
0.000000
40
4.000000
1
Technische Zeichnung
50
0.000000
7
STANDARD
72
1
11
189.500000
21
43.100000
31
0.000000
0
POLYLINE
8
Rahmen
6
CONTINUOUS
66
1
10
0.000000
20
0.000000
30
0.000000
70
1
0
VERTEX
8
Rahmen
10
107.000000
20
31.000000
30
0.000000
0
VERTEX
8
Rahmen
10
217.000000
20
31.000000
30
0.000000
0
VERTEX
8
Rahmen
10
217.000000
20
41.500000
30
0.000000
0
VERTEX
8
Rahmen
10
107.000000
20
41.500000
30
0.000000
0
SEQEND
8
Rahmen
0
TEXT
8
Rahmen
10
108.200000
20
38.700000
30
0.000000
40
2.000000
1
Werkstoff / Halbzeug
50
0.000000
7
STANDARD
72
0
0
TEXT
8
Rahmen
10
162.000000
20
32.600000
30
0.000000
40
4.000000
1
AlMg3
50
0.000000
7
STANDARD
72
1
11
162.000000
21
32.600000
31
0.000000
0
POLYLINE
8
Rahmen
6
CONTINUOUS
66
1
10
0.000000
20
0.000000
30
0.000000
70
1
0
VERTEX
8
Rahmen
10
107.000000
20
20.500000
30
0.000000
0
VERTEX
8
Rahmen
10
162.000000
20
20.500000
30
0.000000
0
VERTEX
8
Rahmen
10
162.000000
20
31.000000
30
0.000000
0
VERTEX
8
Rahmen
10
107.000000
20
31.000000
30
0.000000
0
SEQEND
8
Rahmen
0
TEXT
8
Rahmen
10
108.200000
20
28.200000
30
0.000000
40
2.000000
1
Allgemeintoleranz
50
0.000000
7
STANDARD
72
0
0
TEXT
8
Rahmen
10
134.500000
20
22.100000
30
0.000000
40
4.000000
1
ISO 2768-m
50
0.000000
7
STANDARD
72
1
11
134.500000
21
22.100000
31
0.000000
0
POLYLINE
8
Rahmen
6
CONTINUOUS
66
1
10
0.000000
20
0.000000
30
0.000000
70
1
0
VERTEX
8
Rahmen
10
162.000000
20
20.500000
30
0.000000
0
VERTEX
8
Rahmen
10
217.000000
20
20.500000
30
0.000000
0
VERTEX
8
Rahmen
10
217.000000
20
31.000000
30
0.000000
0
VERTEX
8
Rahmen
10
162.000000
20
31.000000
30
0.000000
0
SEQEND
8
Rahmen
0
TEXT
8
Rahmen
10
163.200000
20
28.200000
30
0.000000
40
2.000000
1
Oberfläche
50
0.000000
7
STANDARD
72
0
0
POLYLINE
8
Rahmen
6
CONTINUOUS
66
1
10
0.000000
20
0.000000
30
0.000000
70
1
0
VERTEX
8
Rahmen
10
107.000000
20
10.000000
30
0.000000
0
VERTEX
8
Rahmen
10
144.000000
20
10.000000
30
0.000000
0
VERTEX
8
Rahmen
10
144.000000
20
20.500000
30
0.000000
0
VERTEX
8
Rahmen
10
107.000000
20
20.500000
30
0.000000
0
SEQEND
8
Rahmen
0
TEXT
8
Rahmen
10
108.200000
20
17.700000
30
0.000000
40
2.000000
1
Maßstab
50
0.000000
7
STANDARD
72
0
0
TEXT
8
Rahmen
10
125.500000
20
11.600000
30
0.000000
40
4.000000
1
1:1
50
0.000000
7
STANDARD
72
1
11
125.500000
21
11.600000
31
0.000000
0
POLYLINE
8
Rahmen
6
CONTINUOUS
66
1
10
0.000000
20
0.000000
30
0.000000
70
1
0
VERTEX
8
Rahmen
10
144.000000
20
10.000000
30
0.000000
0
VERTEX
8
Rahmen
10
181.000000
20
10.000000
30
0.000000
0
VERTEX
8
Rahmen
10
181.000000
20
20.500000
30
0.000000
0
VERTEX
8
Rahmen
10
144.000000
20
20.500000
30
0.000000
0
SEQEND
8
Rahmen
0
TEXT
8
Rahmen
10
145.200000
20
17.700000
30
0.000000
40
2.000000
1
Gewicht
50
0.000000
7
STANDARD
72
0
0
TEXT
8
Rahmen
10
162.500000
20
11.600000
30
0.000000
40
4.000000
1
0,21 kg
50
0.000000
7
STANDARD
72
1
11
162.500000
21
11.600000
31
0.000000
0
POLYLINE
8
Rahmen
6
CONTINUOUS
66
1
10
0.000000
20
0.000000
30
0.000000
70
1
0
VERTEX
8
Rahmen
10
181.000000
20
10.000000
30
0.000000
0
VERTEX
8
Rahmen
10
217.000000
20
10.000000
30
0.000000
0
VERTEX
8
Rahmen
10
217.000000
20
20.500000
30
0.000000
0
VERTEX
8
Rahmen
10
181.000000
20
20.500000
30
0.000000
0
SEQEND
8
Rahmen
0
TEXT
8
Rahmen
10
182.200000
20
17.700000
30
0.000000
40
2.000000
1
Einheit
50
0.000000
7
STANDARD
72
0
0
TEXT
8
Rahmen
10
199.000000
20
11.600000
30
0.000000
40
4.000000
1
mm
50
0.000000
7
STANDARD
72
1
11
199.000000
21
11.600000
31
0.000000
0
POLYLINE
8
Rahmen
6
CONTINUOUS
66
1
10
0.000000
20
0.000000
30
0.000000
70
1
0
VERTEX
8
Rahmen
10
217.000000
20
52.000000
30
0.000000
0
VERTEX
8
Rahmen
10
287.000000
20
52.000000
30
0.000000
0
VERTEX
8
Rahmen
10
287.000000
20
73.000000
30
0.000000
0
VERTEX
8
Rahmen
10
217.000000
20
73.000000
30
0.000000
0
SEQEND
8
Rahmen
0
TEXT
8
Rahmen
10
218.200000
20
70.200000
30
0.000000
40
2.000000
1
Benennung
50
0.000000
7
STANDARD
72
0
0
TEXT
8
Rahmen
10
252.000000
20
59.500000
30
0.000000
40
6.000000
1
Winkelblech
50
0.000000
7
STANDARD
72
1
11
252.000000
21
59.500000
31
0.000000
0
POLYLINE
8
Rahmen
6
CONTINUOUS
66
1
10
0.000000
20
0.000000
30
0.000000
70
1
0
VERTEX
8
Rahmen
10
217.000000
20
31.000000
30
0.000000
0
VERTEX
8
Rahmen
10
287.000000
20
31.000000
30
0.000000
0
VERTEX
8
Rahmen
10
287.000000
20
52.000000
30
0.000000
0
VERTEX
8
Rahmen
10
217.000000
20
52.000000
30
0.000000
0
SEQEND
8
Rahmen
0
TEXT
8
Rahmen
10
218.200000
20
49.200000
30
0.000000
40
2.000000
1
Zeichnungsnummer
50
0.000000
7
STANDARD
72
0
0
TEXT
8
Rahmen
10
252.000000
20
38.000000
30
0.000000
40
7.000000
1
DC-1002
50
0.000000
7
STANDARD
72
1
11
252.000000
21
38.000000
31
0.000000
0
POLYLINE
8
Rahmen
6
CONTINUOUS
66
1
10
0.000000
20
0.000000
30
0.000000
70
1
0
VERTEX
8
Rahmen
10
217.000000
20
20.500000
30
0.000000
0
VERTEX
8
Rahmen
10
252.000000
20
20.500000
30
0.000000
0
VERTEX
8
Rahmen
10
252.000000
20
31.000000
30
0.000000
0
VERTEX
8
Rahmen
10
217.000000
20
31.000000
30
0.000000
0
SEQEND
8
Rahmen
0
TEXT
8
Rahmen
10
218.200000
20
28.200000
30
0.000000
40
2.000000
1
Projektion
50
0.000000
7
STANDARD
72
0
0
POLYLINE
8
Rahmen
6
CONTINUOUS
66
1
10
0.000000
20
0.000000
30
0.000000
70
1
0
VERTEX
8
Rahmen
10
252.000000
20
20.500000
30
0.000000
0
VERTEX
8
Rahmen
10
287.000000
20
20.500000
30
0.000000
0
VERTEX
8
Rahmen
10
287.000000
20
31.000000
30
0.000000
0
VERTEX
8
Rahmen
10
252.000000
20
31.000000
30
0.000000
0
SEQEND
8
Rahmen
0
TEXT
8
Rahmen
10
253.200000
20
28.200000
30
0.000000
40
2.000000
1
Format
50
0.000000
7
STANDARD
72
0
0
TEXT
8
Rahmen
10
269.500000
20
22.100000
30
0.000000
40
4.000000
1
A4L
50
0.000000
7
STANDARD
72
1
11
269.500000
21
22.100000
31
0.000000
0
POLYLINE
8
Rahmen
6
CONTINUOUS
66
1
10
0.000000
20
0.000000
30
0.000000
70
1
0
VERTEX
8
Rahmen
10
217.000000
20
10.000000
30
0.000000
0
VERTEX
8
Rahmen
10
252.000000
20
10.000000
30
0.000000
0
VERTEX
8
Rahmen
10
252.000000
20
20.500000
30
0.000000
0
VERTEX
8
Rahmen
10
217.000000
20
20.500000
30
0.000000
0
SEQEND
8
Rahmen
0
TEXT
8
Rahmen
10
218.200000
20
17.700000
30
0.000000
40
2.000000
1
Revision
50
0.000000
7
STANDARD
72
0
0
TEXT
8
Rahmen
10
234.500000
20
11.600000
30
0.000000
40
4.000000
1
0
50
0.000000
7
STANDARD
72
1
11
234.500000
21
11.600000
31
0.000000
0
POLYLINE
8
Rahmen
6
CONTINUOUS
66
1
10
0.000000
20
0.000000
30
0.000000
70
1
0
VERTEX
8
Rahmen
10
252.000000
20
10.000000
30
0.000000
0
VERTEX
8
Rahmen
10
287.000000
20
10.000000
30
0.000000
0
VERTEX
8
Rahmen
10
287.000000
20
20.500000
30
0.000000
0
VERTEX
8
Rahmen
10
252.000000
20
20.500000
30
0.000000
0
SEQEND
8
Rahmen
0
TEXT
8
Rahmen
10
253.200000
20
17.700000
30
0.000000
40
2.000000
1
Blatt
50
0.000000
7
STANDARD
72
0
0
TEXT
8
Rahmen
10
269.500000
20
11.600000
30
0.000000
40
4.000000
1
1 / 1
50
0.000000
7
STANDARD
72
1
11
269.500000
21
11.600000
31
0.000000
0
CIRCLE
8
Rahmen
6
CONTINUOUS
10
239.000000
20
24.750000
30
0.000000
40
2.700000
0
CIRCLE
8
Rahmen
6
CONTINUOUS
10
239.000000
20
24.750000
30
0.000000
40
1.680000
0
POLYLINE
8
Rahmen
6
CONTINUOUS
66
1
10
0.000000
20
0.000000
30
0.000000
70
1
0
VERTEX
8
Rahmen
10
227.600000
20
23.070000
30
0.000000
0
VERTEX
8
Rahmen
10
227.600000
20
26.430000
30
0.000000
0
VERTEX
8
Rahmen
10
232.400000
20
27.450000
30
0.000000
0
VERTEX
8
Rahmen
10
232.400000
20
22.050000
30
0.000000
0
SEQEND
8
Rahmen
0
LINE
8
Rahmen
6
CENTER
10
228.800000
20
24.750000
30
0.000000
11
240.200000
21
24.750000
31
0.000000
0
ENDSEC
0
EOF
